# xmcd
#
# Track frame offsets:
#	150
#	25721
#	52718
#	67923
#	88300
#	118687
#	140553
#	161434
#	177183
#	204460
#	218262
#	247999
#	277586
#	301444
#	327385
#
# Disc length: 4661 seconds
#
# Revision: 2
# Processed by: cddbd v1.5.2PL0 Copyright (c) Steve Scherf et al.
# Submitted via: EasyCDDAExtractor 2010.6.0.0
#
DISCID=c112330f
DTITLE=Paul van Dyk - Evolution
DYEAR=1900
DGENRE=
TTITLE0=Symmetries feat. Austin Leeds
TTITLE1=The Ocean feat. Arty
TTITLE2=Eternity feat. Adam Young
TTITLE3=Verano feat. Austin Leeds
TTITLE4=I Don't Deserve You feat. Plumb
TTITLE5=The Sun After Heartbreak feat. Sue McLaren and Arty
TTITLE6=Rock This
TTITLE7=Dae Yor feat. Ummet Ozcan
TTITLE8=All The Way feat. Tyler Michaud and Fisher
TTITLE9=If You Want My Love feat. Caligola
TTITLE10=Lost In Berlin feat. Michelle Leonard
TTITLE11=Everywhere feat. Fieldwork
TTITLE12=A Wonderful Day feat. Giuseppe Ottaviani
TTITLE13=We Come Together feat. Sue McLaren
TTITLE14=Heart Stops Beating feat. Sarah Howells
EXTD=
EXTT0=
EXTT1=
EXTT2=
EXTT3=
EXTT4=
EXTT5=
EXTT6=
EXTT7=
EXTT8=
EXTT9=
EXTT10=
EXTT11=
EXTT12=
EXTT13=
EXTT14=
PLAYORDER=
